# xmcd CD database file
#
# Track frame offsets:
#	150
#	20549
#	37421
#	50960
#	75851
#	90208
#	114285
#	130566
#	145318
#
# Disc length: 2436 seconds
#
# Revision: 0
# Processed by: cddbd v1.5.2PL0 Copyright (c) Steve Scherf et al.
# Submitted via: CDex 1.70beta2
#
DISCID=6c098209
DTITLE=Børge "Biceps" Jensen - Saints and legends
DYEAR=2004
DGENRE=Blues
TTITLE0=Train Of Fools
TTITLE1=Evangeline
TTITLE2=I Don't Want You
TTITLE3=New Tennesee Waltz
TTITLE4=I Can't Keep From Crying
TTITLE5=One Kind Favor
TTITLE6=Gutmans Retreat
TTITLE7=Oh Death
TTITLE8=Behind The Sun
EXTD=YEAR: 2004
EXTT0=
EXTT1=
EXTT2=
EXTT3=
EXTT4=
EXTT5=
EXTT6=
EXTT7=
EXTT8=
PLAYORDER=
